{
  "accessors": [
    {
      "name": "object_1_1_positions",
      "componentType": 5126,
      "count": 1260,
      "min": [
        43008.51953125,
        39.88405227661133,
        -59.157623291015625
      ],
      "max": [
        44028.515625,
        1089.884033203125,
        239.789306640625
      ],
      "type": "VEC3",
      "bufferView": 0,
      "byteOffset": 0
    },
    {
      "name": "object_1_1_normals",
      "componentType": 5126,
      "count": 1260,
      "min": [
        -0.5825985074043274,
        -0.6479312181472778,
        0.7198666930198669
      ],
      "max": [
        0.644974410533905,
        0.6345823407173157,
        0.9998541474342346
      ],
      "type": "VEC3",
      "bufferView": 0,
      "byteOffset": 15120
    },
    {
      "name": "object_1_1_0_indices",
      "componentType": 5123,
      "count": 7140,
      "min": [
        0
      ],
      "max": [
        1259
      ],
      "type": "SCALAR",
      "bufferView": 1,
      "byteOffset": 0
    }
  ],
  "asset": {
    "generator": "obj2gltf",
    "version": "2.0"
  },
  "buffers": [
    {
      "name": "surface",
      "byteLength": 44520,
      "uri": "data:application/octet-stream;base64,"
    }
  ],
  "bufferViews": [
    {
      "name": "bufferView_0",
      "buffer": 0,
      "byteLength": 30240,
      "byteOffset": 0,
      "byteStride": 12,
      "target": 34962
    },
    {
      "name": "bufferView_1",
      "buffer": 0,
      "byteLength": 14280,
      "byteOffset": 30240,
      "target": 34963
    }
  ],
  "materials": [
    {
      "name": "default",
      "pbrMetallicRoughness": {
        "baseColorFactor": [
          0.5,
          0.5,
          0.5,
          1
        ],
        "metallicFactor": 0,
        "roughnessFactor": 1
      },
      "emissiveFactor": [
        0,
        0,
        0
      ],
      "alphaMode": "OPAQUE",
      "doubleSided": false
    }
  ],
  "meshes": [
    {
      "name": "object_1_1",
      "primitives": [
        {
          "attributes": {
            "POSITION": 0,
            "NORMAL": 1
          },
          "indices": 2,
          "material": 0,
          "mode": 4
        }
      ]
    }
  ],
  "nodes": [
    {
      "name": "object_1",
      "mesh": 0
    }
  ],
  "scene": 0,
  "scenes": [
    {
      "nodes": [
        0
      ]
    }
  ]
}
